<?xml version="1.0" encoding="UTF-8"?> <svg xmlns="http://www.w3.org/2000/svg" width="1287" height="1287" viewBox="0 0 1287 1287" fill="none"><path d="M672.487 1218.85C987.096 1218.85 1242.14 963.813 1242.14 649.205C1242.14 334.596 987.096 79.5557 672.487 79.5557C357.879 79.5557 102.838 334.596 102.838 649.205C102.838 963.813 357.879 1218.85 672.487 1218.85Z" fill="#0F233C" stroke="white" stroke-width="40.0308" stroke-miterlimit="10"></path><path d="M1123.53 978.018L869.021 1084.02C879.128 1108.11 891.396 1131.24 905.673 1153.12C908.123 1156.82 984.509 1114.08 1050.07 1063.13C1101.18 1023.4 1123.53 978.018 1123.53 978.018Z" fill="#EF8333"></path><path opacity="0.3" d="M1057.72 1057.44C1044.32 1062.25 1028.36 1067.43 1011.54 1071.66C944.692 1088.47 882.754 1090.69 882.754 1090.69C882.754 1090.69 941.576 1078.72 995.515 1062.08C1034.88 1049.93 1069.83 1031.93 1096.73 1015.48L1057.72 1057.44Z" fill="#181818"></path><path d="M307.778 894.055L304.722 927.397L286.524 906.255L283.217 854.8L318.798 807.894L311.32 744.102L294.399 710.258C294.399 710.258 292.429 680.68 300.466 657.45C316.169 612.06 370.715 567.89 315.004 544.122C231.53 508.513 224.344 627.738 224.344 627.738L199.412 614.09L137.227 630.357L73.9929 665.255L48.4102 790.938L60.6104 853.122L86.1931 911.766L115.122 924.557C115.122 924.557 111.648 1042.25 153.758 1122.33C168.965 1151.25 203.024 1180.44 241.395 1197.63C287.084 1218.11 345.824 1222.82 345.824 1222.82L375.732 1189.76L435.293 1149.09L488.427 1069.98L440.414 903.107L369.867 886.38L307.778 894.055Z" fill="#EF8333"></path><path opacity="0.3" d="M320.829 796.019L278.525 862.536L297.619 931.361L357.83 967.007L378.69 1009.3C378.69 1009.3 449.456 1006.04 410.098 945.567C384 905.462 312.332 902.521 312.332 902.521L344.935 898.128L406.449 920.284L422.93 961.794L439.937 1022.4L452.253 1048L470.311 1090.23C470.311 1090.23 454.779 1149.34 378.93 1188.18C366.153 1194.73 355.049 1219.55 339.978 1222.91C319.144 1227.54 292.822 1214.73 266.744 1209.09C136.42 1180.94 172.84 930.327 172.84 930.327L92.1086 914.093L82.9888 890.14C82.9888 890.14 172.519 857.203 173.302 845.995C174.085 834.788 164.83 799.078 164.83 799.078C164.83 799.078 207.234 801.884 213.688 816.281C225.147 841.824 217.545 863.486 217.545 863.486L229.881 851.729L223.795 799.132L158.968 779.018L101.435 801.607C101.435 801.607 118.176 780.844 140.201 768.07C159.75 756.732 173.708 758.298 176.171 754.386C182.817 743.83 190.186 707.077 190.186 707.077C190.186 707.077 240.804 726.849 244.843 745.392C250.578 771.717 230.624 800.52 230.624 800.52L251.629 788.4L255.929 728.616L250.847 718.415L192.2 689.483L117.498 703.714C117.498 703.714 187.503 676.576 192.976 670.321C198.449 664.066 200.113 637.028 200.113 637.028C200.113 637.028 239.902 664.913 242.788 672.261C250.998 693.158 242.953 712.86 242.953 712.86L248.747 716.064L255.337 674.23L231.469 633.059C231.469 633.059 240.084 630.636 258.878 635.132C277.671 639.628 284.461 646.08 284.461 646.08C284.461 646.08 294.114 612.442 307.975 595.644C327.329 572.186 339.98 567.885 339.98 567.885L328.446 605.615L298.023 661.971L292.875 706.101L311.641 745.783L320.829 796.019Z" fill="#181818"></path><path d="M463.886 1045.05C465.673 1067.33 465.287 1083.36 465.287 1083.36C465.287 1083.36 457.807 1112.83 416.555 1154.66C399.991 1171.47 373.61 1179.63 366.182 1187.58C358.755 1195.53 354.583 1211.95 336.859 1215.16C316.788 1218.8 313.96 1207.64 289.098 1204.5C249.712 1199.53 192.378 1180.85 159.064 1117.5C116.954 1037.42 120.625 932.552 120.625 932.552C120.625 932.552 137.437 934.506 166.761 932.161C196.084 929.816 221.497 913.003 221.497 913.003C221.497 913.003 200.018 922.108 164.83 922.894C129.643 923.679 96.0184 908.819 96.0184 908.819C96.0184 908.819 64.195 868.302 59.2424 807.835C54.2899 747.367 80.3552 672.554 80.3552 672.554C80.3552 672.554 97.0385 656.394 140.304 638.41C183.57 620.425 201.556 620.946 201.556 620.946L248.055 666.404C248.055 666.404 251.162 674.64 250.298 690.539C249.463 705.975 245.345 712.823 245.345 712.823C245.345 712.823 214.589 689.234 195.692 683.109C176.794 676.984 101.467 710.478 101.467 710.478C101.467 710.478 172.885 694.448 190.609 695.62C208.334 696.793 249.255 731.982 249.255 731.982C249.255 731.982 253.946 738.759 249.777 764.562C245.607 790.365 231.944 795.575 231.944 795.575C231.944 795.575 190.354 775.119 164.283 773.946C138.212 772.773 91.6927 808.612 91.6927 808.612C91.6927 808.612 148.791 782.221 167.167 786.131C185.542 790.041 216.805 799.619 219.839 808.032C222.873 816.446 224.058 845.234 221.712 852.271C219.365 859.308 185.399 881.724 185.399 881.724L179.665 875.469L186.605 869.31C186.605 869.31 189.83 854.226 161.029 878.466C154.706 883.807 149.197 890.042 144.673 896.973C144.673 896.973 153.079 889.055 159.33 886.025C165.582 882.994 167.02 884.07 167.02 884.07C167.02 884.07 176.469 894.692 183.31 893.714C190.152 892.737 226.986 868.953 232.265 858.396C237.544 847.839 230.962 809.393 230.962 809.393C230.962 809.393 255.212 811.199 260.789 766.583C263.134 747.815 264.308 733.931 262.548 727.289C261.417 723.252 258.797 719.795 255.218 717.612C257.993 710.049 259.895 702.194 260.884 694.199C262.092 683.37 261.061 672.409 257.856 661.996L231.472 633.058C231.472 633.058 229.545 515.771 313.196 550.959C350.704 566.737 326.561 604.922 303.031 641.861C284.851 670.402 289.135 711.651 289.135 711.651C289.135 711.651 306.141 736.676 310.639 761.105C315.136 785.534 313.408 803.344 313.408 803.344L259.783 874.949L278.782 862.372C278.782 862.372 272.138 893.567 287.557 921.215C307.11 956.273 334.202 957.077 345.37 964.432C378.171 986.033 391.701 1070.58 391.701 1070.58C391.701 1070.58 394.983 990.334 355.102 954.56C347.669 947.886 341.362 949.378 329.046 942.83C321.744 938.984 315.033 934.107 309.118 928.35C308.55 922.792 308.763 917.182 309.751 911.682C310.886 906.82 312.363 902.044 314.172 897.39C309.481 898.862 304.901 900.669 300.468 902.795C300.468 902.795 299.573 905.834 298.938 908.62C298.488 910.837 298.161 913.078 297.961 915.331C297.961 915.331 291.314 907.643 289.037 889.377C286.264 867.132 291.382 851.59 291.382 851.59L321.496 811.839C321.496 811.839 326.848 785.914 317.969 752.531C310.25 723.454 297.632 705.298 297.632 705.298C296.349 689.774 298.809 674.17 304.806 659.794C320.999 621.581 340.52 613.019 344.389 574.038C346.075 557.053 324.03 538.407 304.427 535.165C219.455 521.078 221.538 622.22 221.538 622.22L206.149 609.128C206.149 609.128 177.619 610.098 135.382 625.345C93.1644 640.593 69.2989 663.393 69.2989 663.393C69.2989 663.393 38.0236 752.01 46.2366 814.585C54.4591 877.137 87.5517 921.434 87.5517 921.434L108.623 929.246C108.623 929.246 106.092 1040.14 144.492 1115.5C181.057 1187.26 241.293 1210.88 284.37 1218.21C314.068 1223.26 323.203 1233.23 340.457 1229.8C363.438 1225.24 366.305 1205.95 375.168 1197.86C384.03 1189.78 409.538 1181.31 425.707 1164.44C471.061 1117.13 472.897 1101.14 472.897 1101.14C472.897 1101.14 470.328 1076.79 463.886 1045.05Z" fill="#40291A"></path><path d="M543.924 683.359L542.089 714.845C542.089 714.845 574.051 731.61 634.483 728.171C694.914 724.731 925.303 666.964 925.303 666.964C925.303 666.964 928.837 629.515 924.427 597.199C921.015 572.2 904.05 531.569 904.05 531.569C904.05 531.569 744.7 552.913 676.316 582.725C607.932 612.537 543.924 683.359 543.924 683.359Z" fill="#EF8333"></path><path d="M919.097 567.353C913.957 575.141 907.088 581.637 899.025 586.335C886.217 593.45 852.435 602.268 852.435 602.268C852.435 602.268 886.557 603.963 901.81 602.268C917.064 600.574 922.157 598.158 922.157 598.158L919.097 567.353Z" fill="#40291A"></path><path d="M923.842 607.794C923.842 607.794 917.971 616.72 900.57 624.458C883.169 632.197 838.418 639.712 838.418 639.712C838.418 639.712 882.391 645.838 902.34 645.402C922.288 644.966 925.632 643.297 925.632 643.297L923.842 607.794Z" fill="#40291A"></path><path opacity="0.3" d="M876.073 671.08C877.93 660.714 877.882 650.097 875.931 639.749C872.609 623.718 862.842 605.679 862.842 605.679L709.058 623.143C709.058 623.143 694.395 651.409 678.164 664.326C654.582 683.092 553.729 689.112 553.729 689.112L651.454 652.333L680.387 605.808L686.642 588.996L843.223 578.197L905.583 533.815L921.823 594.838L924.422 666.146L876.073 671.08Z" fill="#181818"></path><path d="M927.007 590.938C922.939 569.523 917.246 548.449 909.977 527.899C909.977 527.899 772.31 539.332 689.321 559.271C606.332 579.21 536.137 692.703 536.137 692.703L533.083 710.101C533.083 710.101 560.883 740.965 634.872 737.68C783.831 731.07 931.1 661.961 931.1 661.961C931.1 661.961 933.659 626.12 927.007 590.938ZM915.686 663.83C915.686 663.83 694.912 724.73 634.481 728.169C574.051 731.608 549.32 713.808 549.32 713.808L553.729 689.112C553.729 689.112 607.931 612.542 676.316 582.725C744.701 552.908 902.092 541.374 902.092 541.374C902.092 541.374 911.399 569.073 914.81 594.072C919.221 626.382 915.686 663.83 915.686 663.83Z" fill="#40291A"></path><path d="M790.059 1190.77L882.752 1116.69L881.812 1085.24C881.812 1085.24 971.124 1074.42 1035.63 1047.82C1100.15 1021.21 1148.46 969.102 1148.46 969.102L1126.94 914.523C1126.94 914.523 1164.78 816.905 1091.39 755.517C1028.81 703.17 976.86 709.862 976.86 709.862L959.939 685.067L932.782 666.174L766.425 692.29L632.084 731.115L528.707 714.583L502.728 722.979L478.609 751.376C478.609 751.376 426.209 759.369 414.7 770.996C395.605 790.282 377.575 842.89 377.575 842.89C377.575 842.89 352.641 846.573 324.835 870.965C313.91 880.546 308.046 898.517 308.046 898.517C308.046 898.517 338.757 898.084 360.261 902.189C381.765 906.295 410.114 922.131 410.114 922.131L413.787 946.798L421.921 960.179L431.892 1011.34L458.656 1053.85L460.492 1084.55L494.864 1174.81C494.864 1174.81 517.43 1187.93 611.364 1200.52C705.298 1213.12 790.059 1190.77 790.059 1190.77Z" fill="#224D7A"></path><path d="M579.409 807.174C579.409 807.174 559.806 821.692 544.301 855.059C530.477 884.817 532.271 910.829 532.271 910.829C532.271 910.829 539.881 881.752 549.959 858.352C557.971 840.316 567.841 823.164 579.409 807.174Z" fill="#0C2035"></path><path d="M638.31 777.881C638.31 777.881 760.61 735.354 814.759 740.535C864.658 745.309 868.839 758.768 868.839 758.768C868.839 758.768 842.471 752.545 802.812 752.856C763.152 753.167 638.31 777.881 638.31 777.881Z" fill="#0C2035"></path><path opacity="0.3" d="M804.494 1182.85L806.582 1166.91L885.947 1118.43L872.792 1085.37L851.181 986.15L908.238 909.254L922.861 903.124C922.861 903.124 908.181 897.191 900.548 882.159C894.558 870.361 894.242 854.796 892.188 854.796C887.516 854.796 882.862 862.887 873.548 880.125C857.404 910.013 834.905 957.147 815.165 963.596C799.857 968.601 743.872 962.362 693.213 957.924C640.863 953.334 594.046 950.462 594.046 950.462L766.571 1005.8C766.571 1005.8 797.923 1024.45 786.55 1057.89C775.177 1091.32 758.352 1098.7 758.352 1098.7C758.352 1098.7 722.013 1065.76 676.915 1044.27C631.818 1022.77 571.037 1024.54 571.037 1024.54C571.037 1024.54 638.88 1038.41 670.016 1066.69C701.152 1094.97 680.669 1122.88 680.669 1122.88C680.669 1122.88 610.967 1079.77 559.359 1080.33C507.75 1080.9 492.983 1106.06 492.983 1106.06C492.983 1106.06 481.389 1105.82 479.238 1065.94C477.875 1040.65 510.232 1027.21 510.232 1027.21C502.514 1027.25 494.818 1028.04 487.253 1029.58C480.186 1031.28 473.516 1034.34 467.611 1038.58L459.907 1046.8C460.456 1043.14 461.744 1039.63 463.692 1036.48C466.727 1031.97 466.361 1029.2 466.361 1029.2C466.361 1029.2 454.006 1003.56 452.196 977.989C450.386 952.415 468.748 946.248 468.748 946.248L500.5 939.813C500.5 939.813 441.546 942.911 429.163 940.111C416.781 937.311 414.7 917.73 414.7 917.73V950.248L424.795 963.7L426.559 995.664L457.76 1054.43L463.641 1091.93L496.934 1176.69L643.5 1201.57L726.741 1196.33L804.494 1182.85Z" fill="#181818"></path><path opacity="0.2" d="M865.315 1092.78L874.527 1113.1L837.992 1150.05C837.992 1150.05 847.724 1115.51 845.803 1083.19C844.273 1057.43 838.663 1017.71 838.663 1017.71C830.294 1020.91 821.356 1022.35 812.406 1021.94C798.164 1021.27 786.546 1012.15 786.546 1012.15L853.621 985.176L862.838 1059.21L873.974 1086.72L865.315 1092.78Z" fill="black"></path><path opacity="0.5" d="M1141.39 949.937L1126.77 917.678C1126.77 917.678 1158.03 777.628 1069.28 734.701C1044.73 722.823 974.405 710.721 974.405 710.721L952.511 677.619L929.346 665.14L876.079 671.08C876.079 671.08 909.61 679.141 921.038 689.115C936.833 702.901 937.483 713.356 937.483 713.356L904.235 719.314L880.825 725.844C880.825 725.844 1037.25 700.47 1071.75 798.178C1113.58 916.644 990.384 923.226 990.384 923.226C990.384 923.226 1056.76 927.591 1090.65 1026.64L1141.39 949.937Z" fill="#181818"></path><path d="M797.351 1182.85C805.703 1140.89 819.458 1131.8 819.458 1131.8L812.474 1160.52L874.481 1113.12L874.528 1113.09L876.895 1117.24L882.554 1127.89L808.994 1180.31" fill="#0C2035"></path><path d="M1144.41 939.495C1138.96 925.833 1134.01 913.507 1134.01 913.507C1134.01 913.507 1174.1 837.58 1100.68 755.946C1056.92 707.292 979.885 704.711 979.885 704.711C974.435 696.039 968.129 687.935 961.062 680.52C950.645 670.056 931.112 661.983 931.112 661.983C931.112 661.983 803.264 675.904 741.995 692.855C692.228 706.636 632.92 725.626 632.92 725.626L533.076 710.114C533.076 710.114 511.507 712.53 499.386 719.963C487.264 727.397 477.746 746.03 477.746 746.03C477.746 746.03 430.395 745.77 404.02 774.773C384.086 796.673 371.775 842.864 371.775 842.864C371.775 842.864 342.914 847.173 323.76 865.806C313.243 876.178 305.269 888.843 300.463 902.81C300.463 902.81 336.664 901.177 358.563 905.581C380.439 909.96 405.086 923.29 405.086 923.29C405.086 923.29 403.808 941.853 407.24 952.129C409.285 958.24 413.587 963.338 419.268 966.381C419.268 966.381 419.646 997.136 427.034 1012.69C440.647 1041.39 454.68 1056.82 454.68 1056.82C454.68 1056.82 449.756 1073.13 462.754 1099.04C466.377 1106.28 491.615 1175.06 491.615 1175.06L501.843 1174.99C501.843 1174.99 475.847 1107.16 468.081 1090.73C455.911 1064.92 467.158 1039.64 467.604 1038.6C465.743 1039.72 464.032 1041.07 462.513 1042.62C461.477 1043.91 460.603 1045.31 459.909 1046.81C459.909 1046.81 427.569 1013.83 431.071 969.156C432.16 955.116 468.74 946.262 468.74 946.262C461.188 946.084 453.634 946.424 446.129 947.28C431.923 948.7 426.099 952.134 421.553 950.003C417.032 947.895 414.451 929.029 421.293 898.461C428.443 866.38 447.242 823.598 448.378 820.97C446.839 823.314 423.829 858.402 416.274 877.673C411.552 889.754 408.054 902.278 405.833 915.057C405.833 915.057 383.067 903.283 361.552 899.16C340.054 895.063 315.005 895.277 315.005 895.277C315.005 895.277 321.798 880.432 332.714 870.848C360.509 846.461 402.439 847.503 402.439 847.503C399.143 846.085 395.708 845.013 392.19 844.307C386.271 843.123 383.525 842.507 383.525 842.507C383.525 842.507 396.688 798.802 415.795 779.53C427.301 767.905 447.591 757.109 472.546 756.707C513.788 756.044 539.192 764.402 539.192 764.402C533.868 760.606 528.124 757.436 522.075 754.954C511.708 750.645 494.752 746.929 494.752 746.929C494.752 746.929 495.534 736.891 507.135 727.775C517.383 719.749 532.563 720.483 532.563 720.483L634.463 737.554C634.463 737.554 711.362 712.529 762.904 701.589C814.446 690.65 928.278 672.256 928.278 672.256C938.23 675.004 947.176 680.57 954.037 688.284C965.757 701.329 967.13 706.135 967.13 706.135C967.13 706.135 964.313 706.159 947.385 709.545C931.925 712.623 908.77 718.234 904.843 719.204C913.557 717.524 1018.77 698.891 1085.06 762.2C1154.27 828.279 1116.98 917.157 1116.98 917.157L1132.65 955.692L1144.41 939.495Z" fill="#0C2035"></path><path d="M1066.02 1037.21C1056.61 1042.08 1046.47 1047.23 1035.6 1052.67C977.517 1081.79 865.313 1092.78 865.313 1092.78C865.313 1092.78 858.947 1076.44 855.78 1066.38C847.186 1039.01 847.872 1000.02 847.872 1000.02C847.872 1000.02 838.71 1013.35 809.636 1016.43C795.785 1017.92 749.382 999.001 700.585 983.656C646.913 966.751 591.844 953.35 591.844 953.35L594.046 950.462C594.046 950.462 651.317 955.054 705.511 967.887C754.637 979.512 800.427 998.926 813.118 995.374C852.23 984.46 901.547 912.434 901.547 912.434C901.547 912.434 898.635 911.936 890.254 912.624C882.389 913.286 871.242 917.264 869.892 917.737C871.525 916.696 890.916 904.526 911.087 903.13C943.476 900.833 933.982 915.465 933.982 915.465C930.449 914.193 926.747 913.451 922.997 913.263C916.681 912.931 912.485 912.694 912.485 912.694L862.103 985.403C862.103 985.403 863.121 1037.56 871.266 1060.76C875.503 1072.84 878.841 1080.29 878.841 1080.29C878.841 1080.29 967.2 1070.05 1031.72 1043.43C1049.05 1036.23 1065.87 1027.86 1082.06 1018.38L1066.02 1037.21Z" fill="#0C2035"></path><path d="M913.965 1147.97C902.149 1129.69 891.72 1110.54 882.766 1090.7C874.551 1091.83 868.417 1092.48 865.315 1092.78C865.315 1092.78 867.165 1099.1 874.481 1113.12C876.682 1117.33 879.358 1122.26 882.554 1127.89C888.167 1137.78 893.566 1146.56 898.626 1154.28" fill="#40291A"></path><path d="M480.698 874.393C478.694 888.252 472.38 896.421 458.437 899.22C443.051 902.309 438.922 899.523 442.046 883.52C444.769 869.577 452.477 861.404 466.159 857.986C481.345 854.193 483.765 857.501 480.697 874.393H480.698ZM455.655 880.338C454.139 888.148 454.957 889.843 460.435 888.593C465.913 887.343 467.267 885.124 468.746 877.201C470.239 869.206 469.627 867.409 464.188 868.778C458.748 870.147 457.184 872.457 455.655 880.337" fill="white"></path><path d="M567.966 843.364C569.024 843.571 569.334 843.879 569.211 844.592C568.705 847.504 568.454 848.958 567.949 851.861C567.785 852.807 567.364 853.128 566.173 853.149C559.618 853.268 556.294 853.373 550.114 853.657C547.181 853.791 545.655 854.491 545.389 856.027L545.27 856.719C545.084 857.792 545.865 858.514 548.305 859.184C552.376 860.277 554.469 860.852 558.774 862.044C565.742 864.016 567.498 868.282 566.5 874.231C566.404 874.802 566.356 875.088 566.262 875.661C564.694 885.026 555.276 887.509 544.78 887.526C537.209 887.538 531.62 887.236 527.006 887.264C526.066 887.27 525.758 887.043 525.899 886.206C526.41 883.166 526.669 881.648 527.187 878.614C527.342 877.703 527.696 877.376 528.694 877.303C535.323 876.826 538.839 876.685 546.269 876.562C549.623 876.507 550.769 876.114 551.021 874.631L551.112 874.087C551.311 872.918 550.344 872.218 546.92 871.227C543.202 870.144 541.382 869.623 537.89 868.661C531.838 867.023 530.794 862.481 531.687 857.322C531.781 856.777 531.829 856.504 531.925 855.957C533.315 847.914 539.422 843.521 553.649 842.719C558.433 842.47 563.229 842.687 567.971 843.367" fill="white"></path><path d="M652.08 845.937C652.863 846.027 653.139 846.414 652.87 847.256C647.673 860.114 642.563 873 637.542 885.916C634.909 892.923 631.965 893.319 623.61 892.249C612.893 890.876 611.588 890.046 611.27 882.804C610.971 876.26 610.828 873.019 610.536 866.564C607.957 872.813 606.683 875.93 604.175 882.175C601.41 889.086 600.004 889.62 588.712 888.878C580.06 888.309 577.08 887.386 576.748 880.572C576.281 868.194 575.84 855.815 575.422 843.433C575.377 842.64 575.89 842.313 576.711 842.3C582.332 842.212 585.132 842.199 590.708 842.237C591.342 842.237 591.467 842.567 591.506 843.38C591.459 856.531 591.411 863.082 591.387 876.407C591.428 877.232 591.592 877.323 592.211 877.36C592.829 877.397 593.021 877.323 593.336 876.515C597.826 866.003 602.382 855.517 607.003 845.055C607.127 844.741 607.353 844.478 607.645 844.309C607.937 844.14 608.277 844.074 608.612 844.122C613.398 844.311 615.782 844.428 620.528 844.718C620.681 844.706 620.834 844.725 620.98 844.773C621.125 844.822 621.259 844.899 621.373 845.001C621.488 845.102 621.581 845.226 621.647 845.365C621.712 845.503 621.749 845.653 621.756 845.806C622.527 858.993 622.857 865.588 623.561 879.025C623.578 879.887 623.733 879.989 624.245 880.047C624.841 880.114 625.114 880.059 625.437 879.235C629.318 868.002 633.341 856.811 637.417 845.648C637.673 844.813 638.004 844.494 638.619 844.55C644.03 845.043 646.718 845.321 652.08 845.937Z" fill="white"></path><path d="M678.633 835.698C677.491 840.773 673.634 843.228 668.173 842.48C662.54 841.707 659.94 838.41 661.006 833.392C662.054 828.46 665.949 825.834 671.657 826.547C677.191 827.24 679.754 830.71 678.633 835.698ZM673.099 848.744C673.958 848.876 674.268 849.459 674.07 850.333C670.532 865.834 667.031 881.345 663.821 896.92C663.622 897.886 663.122 898.246 662.3 898.084C657.557 897.156 655.178 896.714 650.409 895.879C649.582 895.733 649.252 895.226 649.439 894.271C652.455 878.873 655.747 863.532 659.075 848.2C659.091 848.012 659.147 847.829 659.238 847.664C659.329 847.499 659.454 847.355 659.604 847.241C659.755 847.127 659.927 847.045 660.111 847.002C660.295 846.959 660.485 846.955 660.671 846.99C665.665 847.64 668.15 847.99 673.099 848.744Z" fill="white"></path><path d="M704.33 839.359C705.315 839.211 705.607 839.988 705.371 840.972C704.139 846.126 703.516 848.692 702.273 853.811C705.436 854.275 707.047 854.503 710.315 854.96C711.457 855.12 711.828 855.636 711.608 856.534C710.759 860.018 710.332 861.755 709.484 865.234C709.245 866.219 708.65 866.593 707.517 866.425C704.258 865.927 702.655 865.678 699.512 865.176C697.447 873.681 696.414 877.919 694.416 886.443C693.521 890.262 694.879 891.173 698.579 891.85C699.985 892.107 700.695 892.236 702.126 892.494C703.163 892.681 703.629 893.232 703.419 894.13C702.545 897.869 702.109 899.741 701.261 903.498C701.233 903.731 701.158 903.955 701.041 904.158C700.924 904.361 700.766 904.538 700.579 904.678C700.391 904.818 700.177 904.919 699.949 904.974C699.721 905.029 699.484 905.037 699.253 904.998C696.153 905.029 693.057 904.768 690.006 904.217C681.664 902.536 675.547 900.88 678.143 889.149C680.508 878.46 681.75 873.181 684.237 862.575C682.199 862.209 681.195 862.022 679.165 861.665C678.969 861.664 678.776 861.616 678.603 861.524C678.43 861.432 678.282 861.299 678.172 861.137C678.062 860.975 677.993 860.788 677.971 860.593C677.95 860.398 677.976 860.201 678.048 860.019C678.827 856.639 679.219 854.95 680.001 851.566C680.031 851.373 680.103 851.189 680.212 851.026C680.321 850.863 680.464 850.726 680.63 850.624C680.797 850.522 680.985 850.458 681.179 850.435C681.373 850.413 681.57 850.433 681.756 850.494C683.805 850.838 684.819 851.018 686.872 851.372C687.745 847.659 688.183 845.801 689.053 842.077C689.278 841.109 689.663 840.991 690.59 840.871C695.918 840.356 698.666 840.016 704.33 839.359Z" fill="white"></path><path d="M762.547 863.227C763.641 863.703 764.192 864.197 763.907 865.529C763.113 869.223 762.715 871.061 761.923 874.737C761.698 875.778 760.959 876.135 759.686 875.907C752.523 874.623 748.95 874.03 741.918 872.902C734.012 871.633 731.908 874.003 729.531 884.083C727.133 894.256 728.034 897.072 736.024 898.541C743.132 899.851 746.757 900.528 754.044 901.983C755.337 902.242 755.886 902.842 755.667 903.877C754.896 907.526 754.513 909.349 753.76 912.997C753.487 914.313 752.74 914.567 751.502 914.588C745.118 914.691 736.55 913.031 732.934 912.429C713.908 909.262 707.702 899.276 712.11 881.208C716.451 863.409 726.228 855.706 745.142 858.947C748.657 859.55 756.845 860.891 762.551 863.227" fill="white"></path><path d="M794.267 846.191C794.484 846.214 794.692 846.284 794.878 846.397C795.064 846.51 795.222 846.663 795.342 846.845C795.461 847.027 795.539 847.233 795.569 847.448C795.599 847.664 795.58 847.883 795.515 848.091C794.059 856.01 793.32 859.945 791.845 867.77C795.022 868.17 799.02 868.952 801.76 869.586C818.682 873.498 826.025 883.052 822.551 900.756C820.7 913.073 819.802 919.157 818.155 931.199C818.011 932.256 817.432 932.568 816.4 932.239C810.401 930.323 807.334 929.403 801.129 927.643C800.909 927.614 800.698 927.538 800.51 927.42C800.323 927.301 800.164 927.143 800.044 926.956C799.924 926.769 799.847 926.559 799.818 926.339C799.788 926.119 799.808 925.895 799.874 925.684C801.465 915.727 802.303 910.725 804.009 900.636C806.298 887.102 805.706 885.938 796.305 883.605C793.506 882.91 792.1 882.573 789.274 881.92C786.819 894.934 784.396 907.954 782.005 920.978C781.817 922.028 781.183 922.37 780.091 922.101C773.696 920.536 770.477 919.791 764.072 918.368C762.974 918.124 762.522 917.534 762.725 916.491C767.55 892.553 772.592 868.659 777.433 844.724C777.451 844.508 777.517 844.298 777.626 844.11C777.735 843.922 777.883 843.761 778.062 843.637C778.24 843.513 778.443 843.43 778.657 843.393C778.871 843.357 779.091 843.368 779.3 843.426C785.308 844.438 788.317 844.985 794.267 846.191Z" fill="white"></path><path d="M555.523 831.022C555.215 832.1 554.58 833.055 553.704 833.753C552.828 834.452 551.756 834.861 550.637 834.921C550.169 834.995 549.69 834.952 549.242 834.796C548.795 834.64 548.393 834.376 548.072 834.027C547.751 833.679 547.521 833.256 547.403 832.797C547.284 832.339 547.281 831.858 547.393 831.397C547.682 830.323 548.299 829.366 549.16 828.66C550.02 827.955 551.079 827.537 552.19 827.465C552.665 827.388 553.152 827.428 553.607 827.583C554.063 827.738 554.474 828.003 554.803 828.354C555.133 828.705 555.371 829.131 555.497 829.596C555.623 830.061 555.633 830.549 555.526 831.018" fill="white"></path><path d="M544.691 819.476C544.302 821.042 543.449 822.453 542.245 823.527C541.04 824.6 539.54 825.285 537.94 825.491C534.886 825.758 532.986 823.55 533.571 820.503C533.914 818.943 534.723 817.523 535.89 816.432C537.057 815.342 538.529 814.631 540.109 814.395C540.782 814.28 541.472 814.338 542.117 814.562C542.762 814.786 543.339 815.169 543.796 815.676C544.253 816.183 544.575 816.797 544.731 817.461C544.888 818.125 544.874 818.818 544.691 819.476Z" fill="white"></path><path d="M527.432 813.278C527.046 815.182 526.118 816.934 524.759 818.323C523.4 819.712 521.669 820.678 519.774 821.105C516.3 821.625 514.112 819.035 514.769 815.247C515.426 811.458 518.702 807.867 522.213 807.295C525.725 806.723 528.13 809.44 527.434 813.278" fill="white"></path><path d="M505.608 819.459C504.729 824.598 500.3 829.433 495.793 830.382C491.286 831.332 488.352 828.094 489.189 823.046C490.025 817.999 494.336 812.973 498.884 811.935C503.433 810.897 506.486 814.319 505.608 819.459Z" fill="white"></path><path d="M482.159 837.52C480.955 844.035 475.117 850.376 468.909 851.839C462.7 853.303 458.422 849.456 459.654 843.103C460.887 836.75 467.087 830.152 473.271 828.522C479.456 826.892 483.364 831.004 482.159 837.52Z" fill="white"></path><path d="M494.706 836.788C494.189 837.001 493.737 837.347 493.397 837.792C493.057 838.236 492.842 838.763 492.772 839.318C492.303 842.271 492.057 843.747 491.572 846.695C491.461 847.358 491.678 847.589 492.342 847.432C497.574 846.198 500.17 845.619 505.47 844.547C512.197 843.189 513.978 844.179 513.267 848.369C513.166 848.965 513.115 849.266 513.014 849.865C512.891 851.266 512.482 852.628 511.811 853.864C511.14 855.101 510.222 856.187 509.115 857.054C502.876 862.331 499.835 864.996 493.727 870.361C486.876 876.445 483.981 879.336 482.882 885.447C482.412 888.068 482.178 889.373 481.715 891.985C481.495 893.219 481.691 893.946 483.161 893.654C495.29 891.146 507.55 889.316 519.882 888.172C520.249 888.14 520.41 888.053 520.478 887.674C521.242 883.139 521.629 880.881 522.409 876.353C522.473 875.976 522.409 875.908 521.896 875.96C513.282 876.821 509.288 877.406 501.372 878.759C501.423 878.462 501.45 878.314 501.502 878.018C501.619 877.44 501.863 876.895 502.219 876.425C502.574 875.954 503.03 875.57 503.554 875.3C508.272 871.515 510.653 869.637 515.536 865.92C523.807 859.512 524.818 855.763 525.725 850.478C526.248 847.428 526.509 845.901 527.026 842.843C529.063 830.807 519.333 830.072 508.973 832.21C504.039 833.109 499.245 834.648 494.71 836.788" fill="#F9581D"></path><path d="M717.068 181.866L713.055 169.336C710.195 160.407 697.144 114.262 720.472 82.3062C729.069 70.5313 745.781 56.4971 776.59 56.4971C784.953 56.5682 793.289 57.4579 801.478 59.1533C840.025 66.8479 855.015 87.5245 860.804 103.518C876.69 147.416 838.836 197.522 831.086 207.121L817.722 223.664L717.068 181.866Z" fill="#40291A"></path><path d="M821.4 196.465C820.784 197.247 820.335 197.814 820.026 198.193L813.353 206.456L728.593 171.274L726.581 165.001C725.066 160.241 712.258 117.649 731.955 90.6823C738.608 81.5672 751.749 70.6992 776.584 70.6992C784.016 70.7712 791.423 71.5723 798.698 73.0909C824.438 78.2294 840.84 90.09 847.445 108.344C860.063 143.218 829.213 186.333 821.4 196.465Z" fill="#EF8333"></path><path d="M836.779 235.837L842.008 220.001C842.916 217.252 864.888 152.564 920.767 141.132C925.838 140.11 930.999 139.603 936.172 139.617C966.15 139.617 998.991 156.116 1017.89 180.672C1026.3 191.389 1032.07 203.929 1034.74 217.282C1037.41 230.636 1036.91 244.431 1033.28 257.556C1025.59 286.603 981.147 310.845 945.218 326.065L926.756 333.89L836.779 235.837Z" fill="#40291A"></path><path d="M1019.54 253.927C1013.27 277.697 968.687 300.212 944.893 310.748H944.845C942.998 311.582 941.246 312.334 939.684 312.997L930.45 316.904L852.889 232.381L855.493 224.449C856.298 222.035 875.712 164.858 923.608 155.056C927.746 154.218 931.958 153.806 936.179 153.825C938.358 153.825 940.56 153.919 942.762 154.133H942.786C942.789 154.133 942.792 154.133 942.795 154.135C942.798 154.136 942.8 154.138 942.802 154.14C942.804 154.142 942.806 154.145 942.807 154.148C942.808 154.15 942.809 154.154 942.809 154.157C966.698 156.311 991.675 169.901 1006.64 189.339C1013.7 198.343 1018.54 208.879 1020.78 220.097C1023.02 231.315 1022.6 242.902 1019.54 253.927Z" fill="#EF8333"></path><path d="M828.313 151.342V151.366C825.63 161.943 821.754 172.181 816.76 181.883C815.007 185.364 813.304 188.556 811.741 191.306C807.952 198.03 805.067 202.245 805.067 202.245L756.201 184.132C756.201 184.132 755.656 178.851 755.538 170.943C755.405 163.672 755.698 156.399 756.414 149.162C756.416 149.082 756.424 149.003 756.438 148.924C759.255 121.864 769.72 90.6347 804.285 100.839C804.854 101.005 805.398 101.17 805.943 101.36C830.751 109.552 833.191 130.576 828.313 151.342Z" fill="#FEC697"></path><path d="M989.521 263.018H989.497C979.388 275.684 961.82 284.917 946.835 290.979C942.307 292.802 938.028 294.341 934.239 295.572C925.575 298.484 919.56 299.881 919.56 299.881L877.186 244.361C877.186 244.361 877.663 243.509 878.559 241.994C879.199 240.922 880.051 239.555 881.116 237.921L881.14 237.897L881.329 237.59C892.67 220.165 925.745 176.199 962.323 192.819H962.347C969.497 196.063 976.766 201.603 984.01 210.079C1002.69 231.884 1000.39 249.428 989.521 263.018Z" fill="#FEC697"></path><path opacity="0.3" d="M756.41 149.161C756.412 149.081 756.42 149.002 756.434 148.923C758.129 132.645 762.6 114.872 773.411 105.503C763.891 113.221 757.062 123.755 753.902 135.595C751.075 147.307 749.378 159.262 748.835 171.298L755.601 173.873C755.574 172.942 755.551 171.966 755.536 170.943C755.402 163.671 755.694 156.398 756.41 149.161Z" fill="#181818"></path><path opacity="0.3" d="M847.443 108.344C840.84 90.09 824.431 78.2294 798.696 73.0909C791.42 71.5723 784.014 70.7712 776.582 70.6992C776.582 70.6992 827.982 75.2454 835.416 112.613C837.072 120.985 835.985 140.04 826.799 157.05C823.047 168.986 817.998 180.474 811.741 191.309C811.406 191.905 811.088 192.452 810.768 193.006L821.4 196.471C829.213 186.333 860.063 143.218 847.443 108.344Z" fill="#181818"></path><path opacity="0.2" d="M1019.54 253.927C1013.27 277.697 968.687 300.212 944.893 310.748H944.845L931.499 296.472C945.703 291.973 969.332 282.858 984.224 268.7C984.248 268.676 984.271 268.676 984.295 268.653C996.559 258.898 1004.8 251.465 1005.44 230.653C1007.21 172.719 944.733 154.677 942.815 154.157C966.704 156.311 991.681 169.901 1006.65 189.34C1013.7 198.344 1018.54 208.879 1020.78 220.097C1023.02 231.316 1022.6 242.903 1019.54 253.927Z" fill="#181818"></path><path opacity="0.2" d="M881.134 237.897L881.323 237.59C890.791 223.043 915.411 190.025 944.566 189.177L944.554 189.143C944.554 189.143 923.331 188.978 910.67 197.11C890.991 209.752 873.687 234.635 873.687 234.635L879.351 240.694C879.86 239.871 880.424 238.974 881.11 237.921L881.134 237.897Z" fill="#181818"></path><path opacity="0.1" d="M816.76 181.881C815.007 185.362 813.304 188.554 811.741 191.303L755.535 170.943C755.402 163.671 755.694 156.398 756.41 149.161C756.412 149.081 756.42 149.002 756.434 148.923C759.251 121.863 769.717 90.6337 804.282 100.838C804.851 101.004 805.395 101.169 805.94 101.359L806.792 101.835C806.792 101.835 765.502 98.0006 771.728 150.56C773.433 164.927 809.539 179.182 816.76 181.881Z" fill="#181818"></path><path opacity="0.1" d="M910.468 225.583C903.863 241.564 939.068 282.286 946.834 290.976C942.306 292.799 938.026 294.337 934.238 295.568L878.553 241.991C879.193 240.918 880.045 239.552 881.11 237.918L881.134 237.894L881.323 237.586C892.664 220.162 925.739 176.195 962.317 192.816C961.418 192.63 925.526 189.126 910.468 225.583Z" fill="#181818"></path><path d="M475.782 405.237L393.449 492.409L356.943 423.93L364.09 368.476L475.782 405.237Z" fill="#AA4F3D"></path><path d="M365.674 380.044C365.674 380.044 364.482 364.979 377.835 340.423C406.875 287.025 481.993 201.713 620.212 176.124C796.077 143.559 906.752 255.396 934.743 306.05C942.904 320.816 940.176 331.019 940.176 331.019L473.043 406.225C473.043 406.225 420.526 402.917 401.433 396.662C388.963 392.394 376.977 386.824 365.674 380.044Z" fill="#EF8333"></path><path d="M589.007 184.044C589.007 184.044 627.661 198.633 644.624 209.069C661.586 219.506 695.508 254.967 695.508 254.967C695.508 254.967 691.252 224.904 679.719 205.155C672.379 192.833 663.292 181.639 652.741 171.923L589.007 184.044Z" fill="#40291A"></path><path d="M719.104 173.097C719.104 173.097 751.839 206.94 764.086 229.658C776.333 252.376 781.257 280.876 781.257 280.876C781.257 280.876 799.774 208.675 783.237 190.466C770.199 176.109 719.104 173.097 719.104 173.097Z" fill="#40291A"></path><path d="M839.392 216.483C839.392 216.483 850.982 300.853 815.534 327.045H846.679C846.679 327.045 884.349 292.769 878.559 246.503L839.392 216.483Z" fill="#40291A"></path><path d="M900.254 265.466C898.507 276.498 894.87 287.145 889.501 296.939C878.35 316.897 856.505 328.378 856.505 328.378L886.03 330.237C886.03 330.237 902.764 317.052 910.67 304.497C918.577 291.942 917.607 283.654 917.607 283.654L900.254 265.466Z" fill="#40291A"></path><path opacity="0.3" d="M692.772 176.129C692.772 176.129 813.615 199.651 855.673 270.226C886.843 322.528 887.071 338.256 887.071 338.256L946.898 331.2L896.591 263.018L836.769 211.316L735.239 168.7L692.772 176.129Z" fill="#181818"></path><path d="M393.02 481.577C393.02 481.577 456.015 367.152 666.597 337.323C877.179 307.493 977.292 337.323 977.292 337.323C977.292 337.323 1000.55 382.81 1000.61 415.595C1000.66 450.019 965.315 499.952 965.315 499.952L958.231 464.798L945.505 448.267L919.708 504.21L882.025 556.762L804.142 580.898L685.214 589.429C685.214 589.429 682.384 620.82 653.397 649.208C641.495 660.863 612.145 666.942 543.919 683.362C508.621 691.859 454.478 692.293 454.478 692.293L471.876 661.98L385.31 672.264L419.934 630.106L436.082 578.477L416.011 557.938L430.573 522.516L396.467 498.64L393.02 481.577Z" fill="white"></path><path d="M516.279 291.52C516.279 291.52 517.842 315.76 534.524 313.676C551.207 311.591 558.765 280.572 558.765 280.572" stroke="#40291A" stroke-width="7.94709" stroke-linecap="round" stroke-linejoin="round"></path><path d="M602.359 277.388C602.359 277.388 604.611 305.034 624.554 304.191C646.225 303.271 650.431 282.888 650.431 282.888" stroke="#40291A" stroke-width="7.94709" stroke-linecap="round" stroke-linejoin="round"></path><path d="M532.198 425.076C532.03 423.501 583.916 391.113 615.832 377.078C647.173 363.294 730.283 334.893 733.429 336.775C736.575 338.656 735.01 344.926 733.447 348.143C731.883 351.361 645.906 371.769 619.5 382.128C592.537 392.704 532.363 426.651 532.198 425.076Z" fill="#40291A"></path><path d="M537.524 443.009C537.933 441.709 583.146 431.493 609.012 429.877C634.411 428.29 701.143 429.547 702.558 432.901C703.972 436.254 700.851 440.9 696.818 442.019C692.784 443.138 630.775 434.64 609.787 434.98C588.358 435.327 537.116 444.31 537.524 443.009Z" fill="#40291A"></path><path d="M544.538 431.79C544.45 430.24 625.484 401.213 674.711 389.095C723.048 377.196 852.466 352.749 854.924 355.585C857.383 358.421 853.271 364.944 850.432 367.634C847.592 370.323 720.279 385.402 679.678 394.203C638.224 403.188 544.626 433.334 544.538 431.79Z" fill="#40291A"></path><path d="M483.174 443.138C486.064 443.138 488.407 441.145 488.407 438.687C488.407 436.229 486.064 434.236 483.174 434.236C480.284 434.236 477.942 436.229 477.942 438.687C477.942 441.145 480.284 443.138 483.174 443.138Z" fill="#40291A"></path><path d="M499.38 475.604C501.719 475.604 503.615 474.164 503.615 472.388C503.615 470.613 501.719 469.173 499.38 469.173C497.041 469.173 495.145 470.613 495.145 472.388C495.145 474.164 497.041 475.604 499.38 475.604Z" fill="#40291A"></path><path d="M454.483 471.214C456.763 471.214 458.612 469.726 458.612 467.89C458.612 466.055 456.763 464.567 454.483 464.567C452.202 464.567 450.354 466.055 450.354 467.89C450.354 469.726 452.202 471.214 454.483 471.214Z" fill="#40291A"></path><path opacity="0.3" d="M440.281 586.578C443.562 587.591 446.963 588.159 450.395 588.265C461.57 588.359 467.64 586.261 467.64 586.261C465.144 589.778 461.705 592.519 457.719 594.165C450.927 597.025 437.852 597.195 437.852 597.195C437.852 597.195 440.045 588.141 440.281 586.578Z" fill="#181818"></path><path opacity="0.3" d="M678.107 587.208C678.107 587.208 684.492 657.223 562.703 684.2C493.813 699.454 467.853 688.445 467.403 688.445L463.004 688.599C463.525 688.003 480.225 647.434 480.225 647.434C482.279 652.334 483.63 657.501 484.236 662.78C484.582 666.916 484.382 671.079 483.64 675.163C483.64 675.163 517.007 680.942 593.786 656.584C665.725 633.764 678.107 587.208 678.107 587.208Z" fill="#181818"></path><path opacity="0.3" d="M762.621 569.449C788.807 567.625 802.58 557.07 802.58 557.07C802.154 557.614 786.34 582.155 786.34 582.155L690.845 584.306L695.073 516.52C695.073 516.52 701.365 527.948 703.845 546.87C706.484 567.009 705.708 564.13 705.708 564.13C705.708 564.13 736.413 571.272 762.621 569.449Z" fill="#181818"></path><path opacity="0.3" d="M953.377 390.69C952.879 393.413 940.931 475.748 913.017 514.907C897.485 536.736 880.569 553.677 861.629 562.886C835.728 575.482 798.486 578.2 798.486 578.2L809.889 545.06C809.889 545.06 812.357 552.568 813.187 556.286C813.677 558.676 813.697 561.14 813.246 563.538C813.246 563.538 865.861 553.988 893.207 521.62C925.137 483.825 952.499 393.295 953.377 390.69Z" fill="#181818"></path><path opacity="0.3" d="M967.501 487.735L948.302 439.353L953.377 390.691C953.377 390.691 975.045 414.819 974.79 445.12C974.553 473.393 967.501 487.735 967.501 487.735Z" fill="#181818"></path><path d="M1005.43 415.992C1005.05 365.159 986.968 325.043 986.968 325.043L949.607 318.429C949.607 318.429 851.472 145.227 662.24 164.873C417.449 190.288 353.218 378.55 353.218 378.55C353.218 378.55 341.404 410.486 369.839 467.686C390.177 508.621 422.044 523.206 422.044 523.206C422.044 523.206 421.448 532.795 419.226 539.234C417.025 545.698 409.52 552.919 409.52 552.919C409.52 552.919 413.172 564.784 416.926 570.381C420.263 575.111 424.311 579.297 428.927 582.791C428.927 582.791 424.648 606.237 411.343 627.597C398.061 648.977 371.993 674.145 371.993 674.145C371.993 674.145 391.218 680.513 412.391 678.951C445.11 676.559 459.789 668.036 459.789 668.036C459.789 668.036 459.718 672.298 453.065 680.655C448.239 686.404 442.819 691.626 436.895 696.234C452.194 699.066 467.745 700.304 483.299 699.928C507.804 699.147 536.143 692.708 536.143 692.708C536.143 692.708 640.742 673.112 659.901 652.457C679.059 631.801 690.397 595.114 690.397 595.114C690.397 595.114 825.11 592.361 869.652 570.213C920.095 545.135 945.68 454.403 945.68 454.403C945.68 454.403 954.157 459.873 957.281 481.37C960.407 502.891 957.097 516.061 957.097 516.061C957.097 516.061 1005.83 466.824 1005.43 415.992ZM950.783 437.826C950.783 437.826 951.667 431.858 952.84 421.954C954.013 412.05 953.377 390.69 953.377 390.69C953.377 390.69 935.442 469.159 908.465 510.802C893.894 533.29 878.283 548.826 859.348 558.028C833.446 570.617 803.634 573.472 803.634 573.472C803.634 573.472 807.935 566.043 809.235 559.657C810.021 554.833 810.239 549.934 809.885 545.06C806.707 550.787 803.182 556.314 799.329 561.611C794.638 567.606 784.342 576.864 784.342 576.864C784.342 576.864 759.317 580.513 740.031 581.556C720.745 582.599 693.414 581.229 693.414 581.229C693.414 581.229 695.062 569.439 695.844 556.732C696.626 544.026 695.069 516.524 695.069 516.524C695.069 516.524 680.613 609.713 651.626 638.097C639.725 649.753 614.912 661.318 546.687 677.739C511.388 686.236 468.687 686.731 468.687 686.731C472.806 682.373 475.923 677.167 477.818 671.478C480.621 662.827 480.221 647.436 480.221 647.436C480.221 647.436 460.477 657.602 441.124 662.689C422.409 667.604 399.465 666.952 399.465 666.952C399.465 666.952 417.697 648.774 426.6 631.863C435.722 614.531 440.595 588.57 440.595 588.57C442.944 589.139 445.346 589.458 447.762 589.523C457.176 590.078 467.636 586.266 467.636 586.266C467.636 586.266 450.14 583.92 438.02 574.928C429.841 568.86 426.73 557.576 426.73 557.576C426.73 557.576 431.967 551.712 433.6 545.429C434.707 540.831 435.415 536.145 435.716 531.424C435.716 531.424 491.676 546.181 543.827 524.018C621.566 490.981 631.447 458.018 631.447 458.018C634.371 459.526 637.031 461.498 639.323 463.858C642.711 467.506 644.113 474.691 644.113 474.691C644.113 474.691 664.793 460.445 639.812 449.016C615.31 437.815 602.8 449.146 602.8 449.146C607.02 449.514 611.21 450.171 615.341 451.113C621.838 452.627 623.146 454.035 623.146 454.035C623.146 454.035 605.797 493.066 522.65 516.916C427.242 544.282 393.016 481.584 393.016 481.584L393.037 481.549L393.008 481.574C393.008 481.574 389.764 477.478 385.527 471.015C379.442 461.662 371.298 447.315 368.078 433.276C360.833 401.716 365.663 380.052 365.663 380.052H365.682L365.67 380.045C365.67 380.045 421.277 222.246 622.661 182.774C840.63 140.059 932.988 316.542 939.764 330.16C964.921 333.642 977.301 337.323 977.301 337.323C977.301 337.323 992.481 381.643 992.533 414.424C992.589 448.847 967.508 487.731 967.508 487.731C967.508 487.731 967.389 469.062 964.201 460.085C961.014 451.108 950.783 437.826 950.783 437.826Z" fill="#40291A"></path><path d="M1242.14 649.205C1242.14 963.813 987.096 1218.85 672.487 1218.85C603.412 1218.94 534.9 1206.42 470.312 1181.93" stroke="white" stroke-width="40.0308" stroke-miterlimit="10"></path><path d="M114.411 534.401C167.528 274.821 397.204 79.5547 672.487 79.5547" stroke="white" stroke-width="40.0308" stroke-miterlimit="10"></path><path d="M548.867 110.695C542.637 112.594 542.392 125.035 537.399 134.911C530.8 147.966 518.458 158.149 520.457 161.758C527.234 174.01 551.734 161.499 560.597 143.513C569.459 125.527 563.334 106.289 548.867 110.695Z" fill="#40291A"></path><path d="M611.247 94.4825C618.286 94.5028 621.865 106.421 629.736 114.489C640.139 125.154 655.797 131.379 654.666 135.441C650.831 149.216 621.804 144.275 607.714 129.516C593.624 114.758 594.904 94.4372 611.247 94.4825Z" fill="#40291A"></path><path d="M364.982 436.115C365.127 434.911 320.512 410.129 293.072 399.387C266.13 388.84 194.781 367.075 191.962 368.547C189.142 370.018 190.092 375.449 191.946 377.246C193.801 379.043 267.216 395.325 289.919 403.252C313.1 411.344 364.838 437.32 364.982 436.115Z" fill="#40291A"></path><path d="M370.711 442.695C370.404 441.689 331.902 432.524 309.733 430.514C287.966 428.541 231.891 427.893 230.977 430.157C230.495 431.478 230.527 432.933 231.066 434.232C231.605 435.531 232.612 436.58 233.888 437.172C236.906 438.669 293.948 433.019 311.925 434.602C330.173 436.206 371.018 443.702 370.711 442.695Z" fill="#40291A"></path><path d="M368.077 450.569C367.747 449.423 294.183 446.384 249.808 450.688C207.231 454.816 113.992 475.772 112.345 479.036C110.699 482.3 113.846 486.692 116.681 487.311C119.516 487.929 224.603 457.757 260.168 454.795C296.479 451.768 368.406 451.722 368.077 450.569Z" fill="#40291A"></path></svg> 